<svg width="312" height="183" viewBox="0 0 312 183" fill="none" xmlns="http://www.w3.org/2000/svg">
<g filter="url(#filter0_d_50_3)">
<g clip-path="url(#clip0_50_3)">
<path d="M4.5 78.25H124.5V94H4.5V78.25ZM4.5 159H128.25V175H4.5V0H124.5V16H4.5V159Z" fill="#8C04FF"/>
</g>
<path d="M143 175V79V0H214.25C232.917 0 249.25 3.75 263.25 11.25C277.417 18.5833 288.417 28.8333 296.25 42C304.083 55.1667 308 70.3333 308 87.5C308 104.667 304.083 119.833 296.25 133C288.417 146.167 277.417 156.5 263.25 164C249.25 171.333 232.917 175 214.25 175H143ZM161.5 159H213.25C228.75 159 242.167 156 253.5 150C265 143.833 273.917 135.417 280.25 124.75C286.583 113.917 289.75 101.5 289.75 87.5C289.75 73.3333 286.583 60.9167 280.25 50.25C273.917 39.5833 265 31.25 253.5 25.25C242.167 19.0833 228.75 16 213.25 16H143V79H161.5V159Z" fill="#8C04FF"/>
</g>
<defs>
<filter id="filter0_d_50_3" x="0" y="0" width="312" height="183" filterUnits="userSpaceOnUse" color-interpolation-filters="sRGB">
<feFlood flood-opacity="0" result="BackgroundImageFix"/>
<feColorMatrix in="SourceAlpha" type="matrix" values="0 0 0 0 0 0 0 0 0 0 0 0 0 0 0 0 0 0 127 0" result="hardAlpha"/>
<feOffset dy="4"/>
<feGaussianBlur stdDeviation="2"/>
<feComposite in2="hardAlpha" operator="out"/>
<feColorMatrix type="matrix" values="0 0 0 0 0 0 0 0 0 0 0 0 0 0 0 0 0 0 0.25 0"/>
<feBlend mode="normal" in2="BackgroundImageFix" result="effect1_dropShadow_50_3"/>
<feBlend mode="normal" in="SourceGraphic" in2="effect1_dropShadow_50_3" result="shape"/>
</filter>
<clipPath id="clip0_50_3">
<rect width="125" height="175" fill="white" transform="translate(4)"/>
</clipPath>
</defs>
</svg>
