<svg version="1.1" id="Layer_1" xmlns="http://www.w3.org/2000/svg" xmlns:xlink="http://www.w3.org/1999/xlink" x="0px" y="0px"
	 width="100%" viewBox="0 0 3264 3264" enable-background="new 0 0 3264 3264" xml:space="preserve">
<path fill="#000000" opacity="1.000000" stroke="none" 
	d="
M1834.000000,3266.000000 
	C1222.666870,3266.000000 612.333679,3266.000000 2.000410,3266.000000 
	C2.000273,2178.000488 2.000273,1090.000977 2.000136,2.001139 
	C1089.999146,2.000760 2177.998291,2.000760 3265.998047,2.000380 
	C3265.998779,1089.998901 3265.998779,2177.997803 3265.999512,3265.998291 
	C2789.000000,3266.000000 2312.000000,3266.000000 1834.000000,3266.000000 
M191.904129,1325.925659 
	C191.904129,1325.925659 191.755997,1325.676636 190.435150,1325.877808 
	C189.332062,1327.680786 188.228973,1329.483887 187.125839,1331.286987 
	C189.447525,1331.859985 191.769196,1332.433105 195.636398,1333.581787 
	C197.816940,1333.531982 199.997467,1333.482056 203.586624,1334.162476 
	C213.749054,1334.441040 223.911469,1334.719604 235.692291,1335.517822 
	C238.513947,1335.510132 241.335602,1335.502441 245.561615,1336.241577 
	C255.731827,1336.501831 265.902039,1336.762207 277.700989,1337.515503 
	C280.523743,1337.495605 283.346527,1337.475708 287.580292,1338.183350 
	C297.078491,1338.441162 306.576691,1338.698975 317.732941,1339.493652 
	C321.212646,1339.479126 324.692352,1339.464478 329.561859,1340.221802 
	C339.732758,1340.447632 349.903687,1340.673584 361.621552,1341.462402 
	C363.802032,1341.466919 365.982483,1341.471558 369.585205,1342.185181 
	C381.078552,1342.507935 392.571869,1342.830688 405.626678,1343.669189 
	C407.805054,1343.606079 409.983398,1343.542969 413.571625,1344.213013 
	C423.071655,1344.492676 432.571716,1344.772339 443.678955,1345.546387 
	C446.423920,1345.306885 449.168854,1345.067505 453.087128,1345.116699 
	C454.343903,1344.199341 455.600708,1343.281982 458.076294,1342.107910 
	C460.036285,1340.592163 461.996277,1339.076538 465.157806,1337.466187 
	C466.307587,1336.399048 467.457367,1335.331787 469.435059,1334.118774 
	C469.435059,1334.118774 469.946564,1333.451660 471.131073,1333.386841 
	C472.246582,1332.327759 473.362061,1331.268799 475.370880,1330.010864 
	C475.370880,1330.010864 475.932373,1329.288330 477.087860,1329.231567 
	C478.181824,1328.208252 479.275787,1327.185059 481.480835,1325.965210 
	C482.286194,1325.212280 483.091583,1324.459229 485.132050,1323.582153 
	C486.326294,1322.490601 487.520569,1321.398926 489.491547,1320.193359 
	C489.491547,1320.193359 489.956329,1319.560791 491.160370,1319.487549 
	C492.294250,1318.406860 493.428101,1317.326172 495.412781,1316.078979 
	C495.412781,1316.078979 495.941620,1315.391968 497.120850,1315.334839 
	C498.249756,1314.297363 499.378662,1313.259888 501.382446,1312.049072 
	C501.382446,1312.049072 501.931030,1311.345825 503.168030,1311.227905 
	C505.041260,1309.597290 506.914520,1307.966675 509.529358,1306.262695 
	C509.529358,1306.262695 509.965302,1305.658325 511.183716,1305.574219 
	C512.336731,1304.475464 513.489807,1303.376831 515.456177,1302.149902 
	C515.456177,1302.149902 515.950500,1301.491455 517.149292,1301.428833 
	C518.295837,1300.371582 519.442383,1299.314331 521.425903,1298.101685 
	C521.425903,1298.101685 521.938538,1297.421997 523.256104,1297.276733 
	C527.092651,1294.293335 530.929260,1291.309937 535.523865,1288.207520 
	C535.523865,1288.207520 535.958008,1287.574951 537.175354,1287.503174 
	C538.354309,1286.437500 539.533264,1285.371826 541.493652,1284.187744 
	C541.493652,1284.187744 541.954834,1283.545898 543.150513,1283.468628 
	C544.266602,1282.385254 545.382690,1281.301880 547.383240,1280.016357 
	C547.383240,1280.016357 547.925964,1279.289185 549.169983,1279.160522 
	C551.088196,1277.568970 553.006470,1275.977295 555.612915,1274.297607 
	C555.612915,1274.297607 555.969727,1273.702759 557.211121,1273.605103 
	C558.420898,1272.520996 559.630676,1271.436890 561.565308,1270.254883 
	C561.565308,1270.254883 561.963806,1269.641479 563.180664,1269.551270 
	C564.331116,1268.458862 565.481567,1267.366577 567.453796,1266.115845 
	C567.453796,1266.115845 567.945557,1265.438843 569.128601,1265.365234 
	C570.254456,1264.317383 571.380249,1263.269409 573.385803,1262.034302 
	C573.385803,1262.034302 573.928223,1261.316895 575.236572,1261.171509 
	C579.081482,1258.223755 582.926392,1255.276123 587.530334,1252.199951 
	C587.530334,1252.199951 587.956360,1251.558594 589.160583,1251.472778 
	C590.308655,1250.402832 591.456665,1249.333008 593.440735,1248.100464 
	C593.440735,1248.100464 593.942993,1247.412720 595.117676,1247.345093 
	C596.224487,1246.293945 597.331299,1245.242798 599.967346,1243.743530 
	C601.787537,1241.857910 603.607788,1239.972290 605.823547,1238.181763 
	C606.407776,1238.159424 606.991333,1238.132324 608.294495,1239.461304 
	C620.826233,1252.295166 633.503174,1264.991821 645.813721,1278.034424 
	C650.346924,1282.837036 654.155334,1288.195435 654.122986,1295.597412 
	C654.109497,1298.677124 656.146301,1301.872192 657.618896,1304.831543 
	C661.622925,1312.878784 665.871643,1320.803711 669.934998,1328.822021 
	C675.956909,1340.705078 681.795776,1352.682129 687.924133,1364.509644 
	C691.169983,1370.773926 693.898865,1372.088623 699.909790,1370.134277 
	C710.520813,1366.684570 719.835632,1360.831055 727.860535,1353.150391 
	C732.159058,1349.036133 732.075745,1345.633545 728.150269,1340.834839 
	C724.992065,1336.973999 721.398010,1333.472290 718.051514,1329.762451 
	C706.235168,1316.663452 694.196777,1303.752319 682.763916,1290.326050 
	C678.348755,1285.140991 674.330750,1280.180176 667.362305,1278.390991 
	C665.324646,1277.867920 663.233032,1276.224731 661.893494,1274.522461 
	C650.746704,1260.359009 639.200867,1246.571411 624.898438,1235.437500 
	C620.747986,1232.206665 622.121338,1229.395142 625.369324,1226.020874 
	C625.369324,1226.020874 625.927246,1225.301514 627.172607,1225.203857 
	C629.061157,1223.587280 630.949707,1221.970703 633.567871,1220.247314 
	C633.567871,1220.247314 633.962341,1219.624390 635.179993,1219.538330 
	C636.340698,1218.454224 637.501404,1217.370117 639.466736,1216.160156 
	C639.466736,1216.160156 639.951965,1215.505981 641.156067,1215.452026 
	C642.296448,1214.385376 643.436890,1213.318726 645.425537,1212.081543 
	C645.425537,1212.081543 645.940857,1211.386475 647.113831,1211.320923 
	C648.222656,1210.278320 649.331543,1209.235596 651.348877,1207.985596 
	C651.348877,1207.985596 651.922424,1207.251099 653.159546,1207.154541 
	C655.032349,1205.546997 656.905090,1203.939453 659.530640,1202.226929 
	C659.530640,1202.226929 659.960205,1201.599854 661.179382,1201.534302 
	C662.334900,1200.449585 663.490417,1199.364868 665.459106,1198.130127 
	C665.459106,1198.130127 665.939758,1197.457275 667.030579,1197.437500 
	C670.985474,1194.596924 671.080566,1194.228271 668.566895,1191.710938 
	C668.566895,1191.710938 668.473999,1191.565918 667.622986,1190.333740 
	C657.057739,1189.887451 646.492493,1189.441162 634.437195,1188.526855 
	C632.886292,1188.577515 631.335388,1188.628174 628.415344,1187.883789 
	C616.919861,1187.572876 605.424377,1187.262085 592.365051,1186.420166 
	C590.178162,1186.486816 587.991211,1186.553345 584.409424,1185.868896 
	C574.248657,1185.573608 564.087830,1185.278320 552.357117,1184.476562 
	C550.170044,1184.533203 547.982971,1184.589722 544.410828,1183.873657 
	C532.252686,1183.519165 520.094604,1183.164551 506.456970,1182.321533 
	C504.913818,1182.397339 503.370636,1182.473145 500.420715,1181.812622 
	C490.256866,1181.521851 480.093048,1181.231079 468.304382,1180.430298 
	C465.475677,1180.478760 462.647003,1180.527222 458.434021,1179.795776 
	C448.264984,1179.529053 438.095978,1179.262207 426.439697,1178.502319 
	C424.886414,1178.565186 423.333099,1178.628052 420.492493,1177.923828 
	C416.552277,1177.734131 412.508942,1176.918823 408.703278,1177.545898 
	C405.452576,1178.081421 402.474731,1180.272827 398.552887,1181.880249 
	C398.552887,1181.880249 398.053375,1182.551270 396.860931,1182.606079 
	C395.719177,1183.655151 394.577393,1184.704224 392.585602,1185.914551 
	C392.585602,1185.914551 392.064270,1186.605103 390.749908,1186.749146 
	C386.920197,1189.727173 383.090515,1192.705200 378.488861,1195.807739 
	C378.488861,1195.807739 378.044312,1196.450928 376.831390,1196.522339 
	C375.659546,1197.583130 374.487732,1198.643921 372.520630,1199.830811 
	C372.520630,1199.830811 372.047607,1200.482544 370.854279,1200.551636 
	C369.736328,1201.628296 368.618347,1202.704834 366.619019,1203.964355 
	C366.619019,1203.964355 366.064331,1204.673340 364.898346,1204.716187 
	C363.804535,1205.755127 362.710724,1206.793945 360.508911,1208.034912 
	C359.706757,1208.786987 358.904633,1209.539185 356.856018,1210.396484 
	C355.646912,1211.488525 354.437805,1212.580444 352.472656,1213.779785 
	C352.472656,1213.779785 352.040833,1214.409546 350.829132,1214.484741 
	C349.683716,1215.568359 348.538300,1216.651978 346.563354,1217.886719 
	C346.563354,1217.886719 346.054321,1218.558716 344.867493,1218.610352 
	C343.748169,1219.668457 342.628876,1220.726685 340.623444,1221.981445 
	C340.623444,1221.981445 340.073669,1222.703613 338.765991,1222.844971 
	C334.929443,1225.790405 331.092896,1228.735840 326.489716,1231.798462 
	C326.489716,1231.798462 326.047607,1232.435669 324.735596,1232.558594 
	C321.676666,1234.974731 318.617706,1237.390747 314.651520,1239.999756 
	C314.651520,1239.999756 314.075226,1240.726440 312.828339,1240.809448 
	C310.934753,1242.419800 309.041168,1244.030273 306.428619,1245.733521 
	C306.428619,1245.733521 306.034424,1246.341919 304.802795,1246.420410 
	C303.625702,1247.509644 302.448578,1248.598999 300.490295,1249.836182 
	C300.490295,1249.836182 300.048981,1250.497437 298.855072,1250.572876 
	C297.723846,1251.636719 296.592621,1252.700562 294.598297,1253.932251 
	C294.598297,1253.932251 294.060303,1254.627563 292.884216,1254.670166 
	C291.783234,1255.719116 290.682251,1256.768066 288.660126,1258.029175 
	C288.660126,1258.029175 288.079712,1258.775146 286.839264,1258.860962 
	C284.945770,1260.455322 283.052277,1262.049805 280.430908,1263.756348 
	C280.430908,1263.756348 280.038086,1264.379272 278.824982,1264.473267 
	C277.668884,1265.555908 276.512787,1266.638428 274.543182,1267.856689 
	C274.543182,1267.856689 274.050598,1268.518188 272.854523,1268.571533 
	C271.729340,1269.638428 270.604126,1270.705322 268.603180,1271.961304 
	C268.603180,1271.961304 268.064453,1272.677246 266.897980,1272.723267 
	C265.792694,1273.754517 264.687378,1274.785645 262.665649,1276.010010 
	C262.665649,1276.010010 262.076508,1276.738037 260.842834,1276.834839 
	C258.994629,1278.455688 257.146423,1280.076416 254.508484,1281.833984 
	C254.508484,1281.833984 254.047577,1282.489624 252.835510,1282.533325 
	C251.678955,1283.597046 250.522415,1284.660767 248.544479,1285.877930 
	C248.544479,1285.877930 248.053635,1286.554077 246.863541,1286.607178 
	C245.732971,1287.660889 244.602386,1288.714722 242.606430,1289.935303 
	C242.606430,1289.935303 242.066437,1290.631714 240.815323,1290.731079 
	C238.922195,1292.366211 237.029068,1294.001343 234.424118,1295.720215 
	C234.424118,1295.720215 234.032394,1296.320435 232.797852,1296.399902 
	C231.617661,1297.494263 230.437485,1298.588501 228.486038,1299.810425 
	C228.486038,1299.810425 228.044830,1300.455688 226.836365,1300.525635 
	C225.674576,1301.589844 224.512787,1302.654053 222.540558,1303.848877 
	C222.540558,1303.848877 222.049911,1304.506958 220.861816,1304.572388 
	C219.761841,1305.651123 218.661865,1306.729858 216.652695,1308.013916 
	C216.652695,1308.013916 216.070236,1308.741577 214.919098,1308.796143 
	C213.830109,1309.813477 212.741135,1310.830933 210.534225,1312.037964 
	C209.723846,1312.789795 208.913467,1313.541504 206.857742,1314.400269 
	C205.644989,1315.489746 204.432220,1316.579224 202.468887,1317.771729 
	C202.468887,1317.771729 202.039703,1318.396240 200.830490,1318.478882 
	C199.694794,1319.568726 198.559097,1320.658447 196.577255,1321.922974 
	C196.577255,1321.922974 196.059998,1322.614990 194.907211,1322.674927 
	C193.829849,1323.699341 192.752502,1324.723755 191.904129,1325.925659 
M2122.350586,1559.000000 
	C2122.350586,1695.532837 2122.350586,1832.065674 2122.350586,1968.540649 
	C2436.062500,1968.540649 2749.415527,1968.540649 3062.854980,1968.540649 
	C3062.854980,1745.320068 3062.854980,1523.228027 3062.854980,1300.433838 
	C2748.854248,1300.433838 2435.527344,1300.433838 2122.340820,1300.433838 
	C2122.340820,1386.453003 2122.340820,1471.726440 2122.350586,1559.000000 
M705.632812,1575.069824 
	C705.632812,1672.279663 705.632812,1769.489624 705.632812,1867.220703 
	C739.111633,1867.220703 771.574646,1867.220703 805.138428,1867.220703 
	C805.138428,1863.190674 805.138428,1859.608398 805.138489,1856.026245 
	C805.139038,1810.039307 805.094299,1764.052124 805.184753,1718.065430 
	C805.199829,1710.411499 805.365479,1702.708862 806.226990,1695.115723 
	C807.950623,1679.923828 812.666931,1665.824341 823.607239,1654.532837 
	C848.427551,1628.915527 887.792480,1638.058350 898.460571,1671.892578 
	C899.160156,1674.111328 899.975769,1676.359619 900.209595,1678.648071 
	C901.392395,1690.223389 903.238037,1701.810425 903.323303,1713.404541 
	C903.673584,1761.055176 903.469788,1808.709717 903.469788,1856.362915 
	C903.469788,1859.956665 903.469849,1863.550537 903.469849,1867.269409 
	C936.734009,1867.269409 968.944275,1867.269409 1002.261719,1867.269409 
	C1002.261719,1863.258667 1002.261719,1859.697144 1002.261780,1856.135620 
	C1002.262268,1809.815430 1002.177185,1763.494995 1002.339783,1717.175293 
	C1002.370056,1708.538818 1002.896118,1699.837280 1004.070740,1691.286255 
	C1006.063110,1676.782959 1011.399597,1663.640869 1022.160461,1653.189453 
	C1046.194458,1629.846558 1083.065308,1638.482056 1093.895752,1670.022461 
	C1094.866577,1672.849854 1095.886475,1675.755371 1096.198364,1678.697266 
	C1097.424683,1690.267334 1099.202148,1701.860229 1099.286377,1713.455566 
	C1099.632324,1761.106201 1099.432373,1808.760742 1099.433105,1856.413940 
	C1099.433228,1859.989380 1099.433228,1863.564819 1099.433228,1867.185059 
	C1132.781616,1867.185059 1164.972900,1867.185059 1197.584351,1867.185059 
	C1197.800171,1865.084595 1198.108643,1863.490479 1198.106934,1861.896484 
	C1198.037964,1799.248535 1198.340942,1736.595459 1197.558838,1673.956177 
	C1197.369385,1658.782837 1194.774414,1643.368652 1191.210693,1628.564819 
	C1183.820190,1597.864014 1167.205200,1573.162476 1136.962402,1561.215210 
	C1094.033325,1544.256226 1051.937500,1548.389771 1012.244629,1571.672241 
	C1001.487244,1577.982178 992.427612,1587.186646 981.772034,1595.716309 
	C962.445984,1564.978271 932.768738,1552.528442 896.917175,1551.565186 
	C860.716309,1550.592529 831.287720,1564.818359 807.075806,1591.571167 
	C806.395325,1591.137695 805.714905,1590.704224 805.034424,1590.270752 
	C805.034424,1579.600952 805.034424,1568.931030 805.034424,1557.668579 
	C771.108093,1557.792969 738.645813,1557.507202 705.632751,1557.851807 
	C705.632751,1563.833984 705.632751,1568.465088 705.632812,1575.069824 
M642.895386,1719.863281 
	C640.483704,1674.328857 618.994629,1640.073608 580.436035,1616.689331 
	C563.109314,1606.181274 544.805359,1597.250000 526.739380,1588.004761 
	C505.399811,1577.083862 483.706268,1566.849854 462.456055,1555.762451 
	C456.369049,1552.586670 450.539612,1548.176514 445.883759,1543.138550 
	C432.287445,1528.426270 436.439362,1507.516846 454.647705,1499.130493 
	C460.863037,1496.267944 468.000702,1494.387695 474.811584,1494.066650 
	C486.404266,1493.520264 498.165436,1493.758057 509.689514,1495.097534 
	C538.393738,1498.433716 565.402649,1507.999390 591.871155,1519.199341 
	C595.457764,1520.717041 599.044678,1522.234131 603.371277,1524.064331 
	C616.829468,1490.188110 629.924316,1457.226807 643.444275,1423.195190 
	C629.028137,1417.782959 615.671814,1412.824097 602.364197,1407.737793 
	C598.504944,1406.262695 595.320129,1407.476440 591.958008,1409.272949 
	C585.202881,1412.882446 578.414124,1416.457642 571.465515,1419.671753 
	C527.380798,1440.063110 480.847198,1452.997559 433.726349,1463.816650 
	C415.921387,1467.904541 397.695709,1470.973145 379.499786,1472.324097 
	C359.997955,1473.772095 340.305359,1472.650757 320.197968,1472.650757 
	C313.635010,1485.234985 310.764648,1498.863525 309.384003,1512.807129 
	C303.528534,1571.941406 322.516724,1619.832764 374.096222,1652.112183 
	C389.297485,1661.625366 405.454956,1669.694946 421.540222,1677.689697 
	C441.218445,1687.470215 461.493469,1696.059448 481.077271,1706.015869 
	C489.270660,1710.181519 497.165863,1715.695068 503.763214,1722.077637 
	C516.774475,1734.664917 515.965088,1754.652344 502.048035,1766.211182 
	C496.621155,1770.718262 489.588501,1774.177734 482.730286,1775.912354 
	C460.644165,1781.498047 438.329620,1778.941650 416.248291,1775.293213 
	C380.210358,1769.338379 345.691193,1758.419312 312.872772,1742.260132 
	C310.700500,1741.190430 308.261658,1740.662231 305.913361,1739.870850 
	C305.458374,1741.404541 305.113708,1742.025513 305.112854,1742.646851 
	C305.063721,1777.969849 305.206573,1813.294434 304.857666,1848.614258 
	C304.800049,1854.447754 308.059845,1855.915527 312.108459,1857.735352 
	C341.804840,1871.083984 372.613953,1880.322876 405.211060,1882.853638 
	C443.183777,1885.802002 481.114563,1887.108154 518.553284,1877.940430 
	C553.267090,1869.439697 584.423401,1854.362183 608.478333,1827.143433 
	C635.073059,1797.050537 645.020874,1761.281738 642.895386,1719.863281 
M1534.996582,1867.746460 
	C1546.500488,1867.509521 1558.049561,1868.263184 1569.454224,1867.305054 
	C1569.454224,1763.709229 1569.454224,1661.245117 1569.454224,1558.876343 
	C1557.565308,1556.791626 1477.751099,1557.276611 1470.581421,1559.482300 
	C1469.679321,1568.977295 1471.156006,1578.811646 1469.814697,1588.302368 
	C1459.117188,1580.238647 1449.988403,1571.703979 1439.421997,1565.698730 
	C1406.167969,1546.800049 1370.983887,1547.368286 1336.124512,1559.931152 
	C1298.355591,1573.542725 1272.625244,1600.994141 1256.963867,1637.337036 
	C1238.621094,1679.902100 1237.713623,1723.994263 1249.562622,1768.437256 
	C1257.332642,1797.580933 1273.080933,1821.911377 1296.093750,1841.404297 
	C1323.909790,1864.966064 1356.727783,1873.993042 1392.505859,1873.282715 
	C1423.875977,1872.660034 1451.161865,1862.261963 1471.982422,1837.713501 
	C1472.682983,1836.887329 1473.814087,1836.426392 1476.269897,1834.760254 
	C1476.269897,1846.626221 1476.269897,1856.745728 1476.269897,1867.746460 
	C1495.853027,1867.746460 1514.425659,1867.746460 1534.996582,1867.746460 
M1874.921875,1796.130859 
	C1875.231934,1797.766479 1875.554077,1799.400024 1875.849976,1801.038208 
	C1883.210327,1841.768311 1909.871094,1867.453613 1950.824463,1872.535400 
	C1972.221802,1875.190430 1993.413330,1872.687500 2014.221191,1867.426514 
	C2026.788452,1864.248901 2038.925903,1859.753296 2051.034424,1852.363647 
	C2042.935913,1828.119995 2034.890991,1804.036987 2027.039429,1780.532715 
	C2016.846802,1782.894653 2007.950806,1785.809692 1998.840332,1786.856445 
	C1986.798340,1788.239746 1978.890869,1782.731079 1975.624146,1771.015015 
	C1973.685181,1764.061035 1972.836426,1756.602051 1972.776123,1749.359497 
	C1972.490234,1715.045288 1972.627319,1680.727417 1972.677734,1646.410767 
	C1972.681396,1643.899048 1973.191162,1641.387939 1973.563843,1637.978027 
	C1998.357178,1637.978027 2022.508545,1637.978027 2047.064941,1637.978027 
	C2047.064941,1610.848145 2047.064941,1584.705688 2047.064941,1557.871582 
	C2022.166992,1557.295166 1997.715210,1558.119751 1972.270020,1557.378174 
	C1972.270020,1520.238159 1972.270020,1484.479004 1972.270020,1448.085571 
	C1938.724854,1451.464478 1906.333618,1454.727173 1872.792725,1458.105591 
	C1872.792725,1491.487427 1872.792725,1524.285400 1872.792725,1557.806152 
	C1860.662598,1557.806152 1849.747559,1557.806152 1838.597412,1557.806152 
	C1838.597412,1584.755249 1838.597412,1610.946777 1838.597412,1638.400635 
	C1850.134521,1638.400635 1861.235718,1638.400635 1872.966431,1638.400635 
	C1872.966431,1643.292358 1872.966553,1646.921875 1872.966553,1650.551392 
	C1872.967041,1687.866577 1872.850952,1725.182251 1873.041382,1762.496460 
	C1873.095703,1773.139526 1874.039673,1783.778076 1874.921875,1796.130859 
M1696.996094,1867.748291 
	C1707.943970,1867.748291 1718.891846,1867.748291 1731.052124,1867.748291 
	C1731.052124,1863.458740 1731.052124,1859.879639 1731.052246,1856.300537 
	C1731.052612,1815.635498 1731.014526,1774.970337 1731.093262,1734.305542 
	C1731.105469,1727.984009 1731.269653,1721.618042 1732.015869,1715.350342 
	C1735.575195,1685.456299 1755.019287,1664.475830 1784.750854,1659.506226 
	C1794.838867,1657.820068 1805.315674,1658.441040 1815.616821,1658.061279 
	C1818.444824,1657.956787 1821.280029,1658.045288 1824.198486,1658.045288 
	C1824.198486,1622.031250 1824.198486,1587.172974 1824.198486,1551.707031 
	C1785.437500,1550.841187 1756.249512,1567.969482 1733.040894,1597.472778 
	C1732.389160,1597.124878 1731.737427,1596.776978 1731.085693,1596.429199 
	C1731.085693,1583.719482 1731.085693,1571.009766 1731.085693,1558.326904 
	C1697.180664,1558.326904 1664.691162,1558.326904 1632.278320,1558.326904 
	C1630.371826,1575.968018 1631.156982,1860.243774 1633.190430,1867.748291 
	C1653.704102,1867.748291 1674.351074,1867.748291 1696.996094,1867.748291 
M627.301147,1347.996582 
	C617.485779,1320.192505 608.290039,1292.160400 597.785583,1263.911621 
	C594.570190,1265.783203 592.506104,1266.809082 590.627319,1268.104126 
	C549.232300,1296.632935 507.767456,1325.062378 466.570251,1353.874512 
	C459.867950,1358.561890 453.292633,1360.416748 445.215485,1360.003784 
	C396.006775,1357.487915 346.780853,1355.307007 297.558441,1353.064697 
	C294.141357,1352.909180 290.705780,1353.160400 287.599854,1353.216675 
	C287.228577,1355.313843 286.901428,1356.001953 287.032654,1356.587280 
	C293.220978,1384.193604 299.527527,1411.773926 305.621490,1439.401001 
	C307.304535,1447.030884 312.142151,1450.374512 319.388031,1451.788940 
	C339.476105,1455.710205 359.717102,1456.546021 380.053864,1455.003296 
	C442.186890,1450.290039 501.211334,1433.697510 557.512451,1407.392944 
	C580.802185,1396.511719 602.703918,1383.194824 621.551147,1365.352661 
	C626.175415,1360.974976 629.432983,1356.310059 627.301147,1347.996582 
z"/>
<path fill="#7E03FC" opacity="1.000000" stroke="none" 
	d="
M2122.345703,1558.000000 
	C2122.340820,1471.726440 2122.340820,1386.453003 2122.340820,1300.433838 
	C2435.527344,1300.433838 2748.854248,1300.433838 3062.854980,1300.433838 
	C3062.854980,1523.228027 3062.854980,1745.320068 3062.854980,1968.540649 
	C2749.415527,1968.540649 2436.062500,1968.540649 2122.350586,1968.540649 
	C2122.350586,1832.065674 2122.350586,1695.532837 2122.345703,1558.000000 
M2337.000000,1899.882446 
	C2396.323975,1899.882324 2455.647949,1899.883301 2514.971924,1899.878174 
	C2517.970947,1899.877930 2520.988525,1900.028076 2523.965576,1899.757568 
	C2531.677002,1899.056641 2536.916504,1894.372437 2538.324707,1886.772827 
	C2538.865723,1883.852783 2538.867188,1880.806396 2538.870850,1877.817383 
	C2538.908203,1848.488770 2538.903809,1819.160034 2538.878906,1789.831421 
	C2538.876709,1787.171509 2538.880615,1784.476074 2538.480469,1781.858521 
	C2537.226807,1773.654663 2532.044922,1768.744019 2523.854980,1767.995605 
	C2520.878418,1767.723511 2517.860352,1767.889282 2514.861084,1767.889160 
	C2454.537354,1767.885132 2394.213623,1767.885986 2333.889893,1767.885864 
	C2330.330322,1767.885864 2326.770508,1767.885864 2322.902100,1767.885864 
	C2322.902100,1748.538818 2322.902100,1730.427490 2322.902100,1711.462402 
	C2327.213135,1711.462402 2330.826660,1711.462524 2334.440430,1711.462402 
	C2377.100342,1711.460815 2419.760254,1711.524902 2462.419922,1711.420654 
	C2476.610840,1711.385986 2481.853760,1706.123779 2481.918457,1692.121338 
	C2482.026367,1668.792236 2481.956055,1645.462158 2481.952393,1622.132568 
	C2481.951172,1613.800781 2482.178955,1605.458618 2481.843506,1597.139771 
	C2481.449463,1587.369873 2475.946045,1581.774780 2466.344482,1580.849609 
	C2463.700928,1580.594849 2461.016602,1580.735840 2458.351074,1580.735474 
	C2416.691162,1580.730225 2375.031006,1580.745361 2333.371094,1580.706299 
	C2329.866211,1580.703003 2326.361572,1580.346680 2322.954590,1580.159668 
	C2322.954590,1559.562378 2322.954590,1540.102661 2322.954590,1519.902954 
	C2327.326904,1519.902954 2330.948730,1519.902954 2334.570557,1519.902832 
	C2391.228271,1519.901001 2447.885742,1519.930908 2504.543457,1519.876099 
	C2519.252197,1519.861938 2524.357178,1514.746094 2524.395264,1500.000366 
	C2524.474609,1469.338867 2524.419678,1438.676880 2524.413818,1408.015137 
	C2524.413574,1406.349365 2524.459717,1404.674683 2524.312500,1403.019409 
	C2523.499268,1393.878296 2518.109131,1388.634766 2508.800049,1387.976196 
	C2506.477783,1387.811890 2504.135742,1387.910156 2501.802979,1387.910156 
	C2402.152344,1387.907959 2302.501465,1387.907837 2202.850830,1387.909668 
	C2200.517822,1387.909790 2198.175293,1387.798950 2195.853760,1387.968750 
	C2186.586670,1388.647095 2181.105713,1393.893555 2180.218262,1403.014404 
	C2179.961182,1405.657837 2180.099365,1408.342407 2180.099365,1411.008057 
	C2180.094971,1566.316650 2180.094482,1721.625122 2180.102783,1876.933716 
	C2180.102783,1879.931152 2179.923828,1882.969116 2180.333252,1885.918091 
	C2181.438721,1893.883667 2186.935791,1899.019165 2195.027588,1899.758789 
	C2198.004150,1900.030884 2201.021973,1899.878174 2204.020996,1899.878540 
	C2247.680664,1899.883789 2291.340332,1899.882202 2337.000000,1899.882446 
M2572.283936,1703.000000 
	C2572.285400,1761.973389 2572.249023,1820.946899 2572.315918,1879.920288 
	C2572.332275,1894.505127 2577.695557,1899.854858 2592.223633,1899.859375 
	C2650.197266,1899.877075 2708.171875,1899.993286 2766.144043,1899.683228 
	C2793.913818,1899.534790 2821.325195,1895.769043 2847.951660,1887.739258 
	C2924.695068,1864.595703 2977.173584,1815.369019 3004.082031,1739.830444 
	C3020.638184,1693.352539 3023.230469,1645.160767 3015.480957,1596.795532 
	C3001.050293,1506.731201 2951.437256,1443.354004 2867.268311,1407.875610 
	C2832.440430,1393.195312 2795.518799,1388.009277 2757.862061,1387.958496 
	C2702.886963,1387.884399 2647.911621,1387.920898 2592.936523,1387.912598 
	C2591.270752,1387.912354 2589.596680,1387.836792 2587.940674,1387.970581 
	C2578.748779,1388.712646 2573.269531,1393.989258 2572.421875,1403.140381 
	C2572.115479,1406.446167 2572.288086,1409.798706 2572.287842,1413.129883 
	C2572.282959,1509.086548 2572.284180,1605.043335 2572.283936,1703.000000 
z"/>
<path fill="#FDFDFD" opacity="1.000000" stroke="none" 
	d="
M705.632812,1574.083008 
	C705.632751,1568.465088 705.632751,1563.833984 705.632751,1557.851807 
	C738.645813,1557.507202 771.108093,1557.792969 805.034424,1557.668579 
	C805.034424,1568.931030 805.034424,1579.600952 805.034424,1590.270752 
	C805.714905,1590.704224 806.395325,1591.137695 807.075806,1591.571167 
	C831.287720,1564.818359 860.716309,1550.592529 896.917175,1551.565186 
	C932.768738,1552.528442 962.445984,1564.978271 981.772034,1595.716309 
	C992.427612,1587.186646 1001.487244,1577.982178 1012.244629,1571.672241 
	C1051.937500,1548.389771 1094.033325,1544.256226 1136.962402,1561.215210 
	C1167.205200,1573.162476 1183.820190,1597.864014 1191.210693,1628.564819 
	C1194.774414,1643.368652 1197.369385,1658.782837 1197.558838,1673.956177 
	C1198.340942,1736.595459 1198.037964,1799.248535 1198.106934,1861.896484 
	C1198.108643,1863.490479 1197.800171,1865.084595 1197.584351,1867.185059 
	C1164.972900,1867.185059 1132.781616,1867.185059 1099.433228,1867.185059 
	C1099.433228,1863.564819 1099.433228,1859.989380 1099.433105,1856.413940 
	C1099.432373,1808.760742 1099.632324,1761.106201 1099.286377,1713.455566 
	C1099.202148,1701.860229 1097.424683,1690.267334 1096.198364,1678.697266 
	C1095.886475,1675.755371 1094.866577,1672.849854 1093.895752,1670.022461 
	C1083.065308,1638.482056 1046.194458,1629.846558 1022.160461,1653.189453 
	C1011.399597,1663.640869 1006.063110,1676.782959 1004.070740,1691.286255 
	C1002.896118,1699.837280 1002.370056,1708.538818 1002.339783,1717.175293 
	C1002.177185,1763.494995 1002.262268,1809.815430 1002.261780,1856.135620 
	C1002.261719,1859.697144 1002.261719,1863.258667 1002.261719,1867.269409 
	C968.944275,1867.269409 936.734009,1867.269409 903.469849,1867.269409 
	C903.469849,1863.550537 903.469788,1859.956665 903.469788,1856.362915 
	C903.469788,1808.709717 903.673584,1761.055176 903.323303,1713.404541 
	C903.238037,1701.810425 901.392395,1690.223389 900.209595,1678.648071 
	C899.975769,1676.359619 899.160156,1674.111328 898.460571,1671.892578 
	C887.792480,1638.058350 848.427551,1628.915527 823.607239,1654.532837 
	C812.666931,1665.824341 807.950623,1679.923828 806.226990,1695.115723 
	C805.365479,1702.708862 805.199829,1710.411499 805.184753,1718.065430 
	C805.094299,1764.052124 805.139038,1810.039307 805.138489,1856.026245 
	C805.138428,1859.608398 805.138428,1863.190674 805.138428,1867.220703 
	C771.574646,1867.220703 739.111633,1867.220703 705.632812,1867.220703 
	C705.632812,1769.489624 705.632812,1672.279663 705.632812,1574.083008 
z"/>
<path fill="#FDFDFD" opacity="1.000000" stroke="none" 
	d="
M642.965210,1720.786621 
	C645.020874,1761.281738 635.073059,1797.050537 608.478333,1827.143433 
	C584.423401,1854.362183 553.267090,1869.439697 518.553284,1877.940430 
	C481.114563,1887.108154 443.183777,1885.802002 405.211060,1882.853638 
	C372.613953,1880.322876 341.804840,1871.083984 312.108459,1857.735352 
	C308.059845,1855.915527 304.800049,1854.447754 304.857666,1848.614258 
	C305.206573,1813.294434 305.063721,1777.969849 305.112854,1742.646851 
	C305.113708,1742.025513 305.458374,1741.404541 305.913361,1739.870850 
	C308.261658,1740.662231 310.700500,1741.190430 312.872772,1742.260132 
	C345.691193,1758.419312 380.210358,1769.338379 416.248291,1775.293213 
	C438.329620,1778.941650 460.644165,1781.498047 482.730286,1775.912354 
	C489.588501,1774.177734 496.621155,1770.718262 502.048035,1766.211182 
	C515.965088,1754.652344 516.774475,1734.664917 503.763214,1722.077637 
	C497.165863,1715.695068 489.270660,1710.181519 481.077271,1706.015869 
	C461.493469,1696.059448 441.218445,1687.470215 421.540222,1677.689697 
	C405.454956,1669.694946 389.297485,1661.625366 374.096222,1652.112183 
	C322.516724,1619.832764 303.528534,1571.941406 309.384003,1512.807129 
	C310.764648,1498.863525 313.635010,1485.234985 320.197968,1472.650757 
	C340.305359,1472.650757 359.997955,1473.772095 379.499786,1472.324097 
	C397.695709,1470.973145 415.921387,1467.904541 433.726349,1463.816650 
	C480.847198,1452.997559 527.380798,1440.063110 571.465515,1419.671753 
	C578.414124,1416.457642 585.202881,1412.882446 591.958008,1409.272949 
	C595.320129,1407.476440 598.504944,1406.262695 602.364197,1407.737793 
	C615.671814,1412.824097 629.028137,1417.782959 643.444275,1423.195190 
	C629.924316,1457.226807 616.829468,1490.188110 603.371277,1524.064331 
	C599.044678,1522.234131 595.457764,1520.717041 591.871155,1519.199341 
	C565.402649,1507.999390 538.393738,1498.433716 509.689514,1495.097534 
	C498.165436,1493.758057 486.404266,1493.520264 474.811584,1494.066650 
	C468.000702,1494.387695 460.863037,1496.267944 454.647705,1499.130493 
	C436.439362,1507.516846 432.287445,1528.426270 445.883759,1543.138550 
	C450.539612,1548.176514 456.369049,1552.586670 462.456055,1555.762451 
	C483.706268,1566.849854 505.399811,1577.083862 526.739380,1588.004761 
	C544.805359,1597.250000 563.109314,1606.181274 580.436035,1616.689331 
	C618.994629,1640.073608 640.483704,1674.328857 642.965210,1720.786621 
z"/>
<path fill="#FDFDFD" opacity="1.000000" stroke="none" 
	d="
M1533.997437,1867.746460 
	C1514.425659,1867.746460 1495.853027,1867.746460 1476.269897,1867.746460 
	C1476.269897,1856.745728 1476.269897,1846.626221 1476.269897,1834.760254 
	C1473.814087,1836.426392 1472.682983,1836.887329 1471.982422,1837.713501 
	C1451.161865,1862.261963 1423.875977,1872.660034 1392.505859,1873.282715 
	C1356.727783,1873.993042 1323.909790,1864.966064 1296.093750,1841.404297 
	C1273.080933,1821.911377 1257.332642,1797.580933 1249.562622,1768.437256 
	C1237.713623,1723.994263 1238.621094,1679.902100 1256.963867,1637.337036 
	C1272.625244,1600.994141 1298.355591,1573.542725 1336.124512,1559.931152 
	C1370.983887,1547.368286 1406.167969,1546.800049 1439.421997,1565.698730 
	C1449.988403,1571.703979 1459.117188,1580.238647 1469.814697,1588.302368 
	C1471.156006,1578.811646 1469.679321,1568.977295 1470.581421,1559.482300 
	C1477.751099,1557.276611 1557.565308,1556.791626 1569.454224,1558.876343 
	C1569.454224,1661.245117 1569.454224,1763.709229 1569.454224,1867.305054 
	C1558.049561,1868.263184 1546.500488,1867.509521 1533.997437,1867.746460 
M1410.842773,1786.385498 
	C1439.396851,1784.813110 1461.435303,1768.293335 1470.401001,1741.210449 
	C1476.659424,1722.305786 1476.671387,1703.149414 1470.119263,1684.342407 
	C1463.570435,1665.544556 1451.353638,1651.373291 1432.623291,1643.918091 
	C1396.675293,1629.610229 1357.202393,1650.175293 1346.252441,1688.600586 
	C1342.733154,1700.950562 1342.479004,1713.551025 1343.880981,1726.228882 
	C1347.828979,1761.932251 1374.662842,1787.410400 1410.842773,1786.385498 
z"/>
<path fill="#FCFCFC" opacity="1.000000" stroke="none" 
	d="
M1874.748779,1795.274780 
	C1874.039673,1783.778076 1873.095703,1773.139526 1873.041382,1762.496460 
	C1872.850952,1725.182251 1872.967041,1687.866577 1872.966553,1650.551392 
	C1872.966553,1646.921875 1872.966431,1643.292358 1872.966431,1638.400635 
	C1861.235718,1638.400635 1850.134521,1638.400635 1838.597412,1638.400635 
	C1838.597412,1610.946777 1838.597412,1584.755249 1838.597412,1557.806152 
	C1849.747559,1557.806152 1860.662598,1557.806152 1872.792725,1557.806152 
	C1872.792725,1524.285400 1872.792725,1491.487427 1872.792725,1458.105591 
	C1906.333618,1454.727173 1938.724854,1451.464478 1972.270020,1448.085571 
	C1972.270020,1484.479004 1972.270020,1520.238159 1972.270020,1557.378174 
	C1997.715210,1558.119751 2022.166992,1557.295166 2047.064941,1557.871582 
	C2047.064941,1584.705688 2047.064941,1610.848145 2047.064941,1637.978027 
	C2022.508545,1637.978027 1998.357178,1637.978027 1973.563843,1637.978027 
	C1973.191162,1641.387939 1972.681396,1643.899048 1972.677734,1646.410767 
	C1972.627319,1680.727417 1972.490234,1715.045288 1972.776123,1749.359497 
	C1972.836426,1756.602051 1973.685181,1764.061035 1975.624146,1771.015015 
	C1978.890869,1782.731079 1986.798340,1788.239746 1998.840332,1786.856445 
	C2007.950806,1785.809692 2016.846802,1782.894653 2027.039429,1780.532715 
	C2034.890991,1804.036987 2042.935913,1828.119995 2051.034424,1852.363647 
	C2038.925903,1859.753296 2026.788452,1864.248901 2014.221191,1867.426514 
	C1993.413330,1872.687500 1972.221802,1875.190430 1950.824463,1872.535400 
	C1909.871094,1867.453613 1883.210327,1841.768311 1875.849976,1801.038208 
	C1875.554077,1799.400024 1875.231934,1797.766479 1874.748779,1795.274780 
z"/>
<path fill="#FCFCFC" opacity="1.000000" stroke="none" 
	d="
M1695.997070,1867.748291 
	C1674.351074,1867.748291 1653.704102,1867.748291 1633.190430,1867.748291 
	C1631.156982,1860.243774 1630.371826,1575.968018 1632.278320,1558.326904 
	C1664.691162,1558.326904 1697.180664,1558.326904 1731.085693,1558.326904 
	C1731.085693,1571.009766 1731.085693,1583.719482 1731.085693,1596.429199 
	C1731.737427,1596.776978 1732.389160,1597.124878 1733.040894,1597.472778 
	C1756.249512,1567.969482 1785.437500,1550.841187 1824.198486,1551.707031 
	C1824.198486,1587.172974 1824.198486,1622.031250 1824.198486,1658.045288 
	C1821.280029,1658.045288 1818.444824,1657.956787 1815.616821,1658.061279 
	C1805.315674,1658.441040 1794.838867,1657.820068 1784.750854,1659.506226 
	C1755.019287,1664.475830 1735.575195,1685.456299 1732.015869,1715.350342 
	C1731.269653,1721.618042 1731.105469,1727.984009 1731.093262,1734.305542 
	C1731.014526,1774.970337 1731.052612,1815.635498 1731.052246,1856.300537 
	C1731.052124,1859.879639 1731.052124,1863.458740 1731.052124,1867.748291 
	C1718.891846,1867.748291 1707.943970,1867.748291 1695.997070,1867.748291 
z"/>
<path fill="#8C04FF" opacity="1.000000" stroke="none" 
	d="
M625.927246,1225.301514 
	C625.927246,1225.301514 625.369324,1226.020874 624.174805,1226.041138 
	C620.611389,1226.723755 618.242493,1227.386108 615.208862,1227.853394 
	C591.887207,1212.839355 567.438049,1206.977539 540.429260,1211.661865 
	C502.652161,1218.213989 467.712585,1232.521973 433.660065,1249.452393 
	C432.189514,1250.183472 430.210785,1250.944214 429.646942,1252.214233 
	C428.669891,1254.415039 427.770691,1257.308105 428.459106,1259.369751 
	C428.954041,1260.851685 432.144836,1262.359985 434.026337,1262.235962 
	C436.870056,1262.048706 439.661407,1260.549927 442.404541,1259.434937 
	C463.939880,1250.682251 485.285065,1241.422363 507.060364,1233.316895 
	C516.918640,1229.647217 527.621094,1228.245117 538.201538,1226.275146 
	C539.669922,1226.153809 540.877319,1225.571777 542.964539,1224.673828 
	C560.305603,1221.898071 576.213989,1223.685181 591.360962,1230.782593 
	C596.141235,1233.022461 600.744019,1235.641235 605.428040,1238.086670 
	C603.607788,1239.972290 601.787537,1241.857910 598.561646,1243.934326 
	C596.085022,1245.221069 595.014038,1246.316895 593.942993,1247.412720 
	C593.942993,1247.412720 593.440735,1248.100464 592.357422,1248.133301 
	C590.168213,1249.296875 589.062317,1250.427734 587.956360,1251.558594 
	C587.956360,1251.558594 587.530334,1252.199951 586.407104,1252.197998 
	C580.684570,1254.222900 575.580017,1255.620483 573.928223,1261.316895 
	C573.928223,1261.316895 573.385803,1262.034302 572.297913,1262.088135 
	C570.121887,1263.240845 569.033691,1264.339844 567.945557,1265.438843 
	C567.945557,1265.438843 567.453796,1266.115845 566.368835,1266.146484 
	C564.177185,1267.331909 563.070496,1268.486694 561.963806,1269.641479 
	C561.963806,1269.641479 561.565308,1270.254883 560.506348,1270.233887 
	C558.288147,1271.376099 557.128906,1272.539429 555.969727,1273.702759 
	C555.969727,1273.702759 555.612915,1274.297607 554.558594,1274.252563 
	C551.644836,1275.901367 549.785400,1277.595337 547.925964,1279.289185 
	C547.925964,1279.289185 547.383240,1280.016357 546.285522,1280.083008 
	C544.110107,1281.281616 543.032471,1282.413696 541.954834,1283.545898 
	C541.954834,1283.545898 541.493652,1284.187744 540.427368,1284.185791 
	C538.226685,1285.314331 537.092346,1286.444580 535.958008,1287.574951 
	C535.958008,1287.574951 535.523865,1288.207520 534.400452,1288.202881 
	C528.679016,1290.266602 523.498413,1291.618896 521.938538,1297.421997 
	C521.938538,1297.421997 521.425903,1298.101685 520.348694,1298.130737 
	C518.164490,1299.270386 517.057495,1300.380859 515.950500,1301.491455 
	C515.950500,1301.491455 515.456177,1302.149902 514.372864,1302.161133 
	C512.181519,1303.334473 511.073395,1304.496460 509.965332,1305.658325 
	C509.965302,1305.658325 509.529358,1306.262695 508.454376,1306.218872 
	C505.563263,1307.898682 503.747131,1309.622192 501.931030,1311.345825 
	C501.931030,1311.345825 501.382446,1312.049072 500.300537,1312.093750 
	C498.126312,1313.223022 497.033966,1314.307495 495.941650,1315.391968 
	C495.941620,1315.391968 495.412781,1316.078979 494.325775,1316.120117 
	C492.144623,1317.294556 491.050476,1318.427612 489.956299,1319.560791 
	C489.956329,1319.560791 489.491547,1320.193359 488.415314,1320.193726 
	C486.191711,1321.364868 485.044312,1322.535522 483.896942,1323.706177 
	C483.091583,1324.459229 482.286194,1325.212280 480.299988,1326.037231 
	C478.056885,1327.168945 476.994659,1328.228638 475.932373,1329.288330 
	C475.932373,1329.288330 475.370880,1330.010864 474.277832,1330.075317 
	C472.105377,1331.243774 471.025970,1332.347656 469.946564,1333.451660 
	C469.946564,1333.451660 469.435059,1334.118774 468.355316,1334.143066 
	C466.169159,1335.298584 465.062744,1336.429688 463.956299,1337.560791 
	C461.996277,1339.076538 460.036285,1340.592163 456.837585,1342.143188 
	C454.370514,1343.061646 453.142151,1343.944824 451.913788,1344.828125 
	C449.168854,1345.067505 446.423920,1345.306885 442.577637,1344.601318 
	C431.720917,1340.916748 421.948151,1341.067383 412.161774,1343.479858 
	C409.983398,1343.542969 407.805054,1343.606079 404.562531,1342.699951 
	C391.739716,1338.897705 379.959045,1339.119141 368.162964,1341.476196 
	C365.982483,1341.471558 363.802032,1341.466919 360.526672,1340.502930 
	C349.019135,1337.095093 338.599091,1337.108765 328.172058,1339.449951 
	C324.692352,1339.464478 321.212646,1339.479126 316.591858,1338.540039 
	C305.701721,1334.981079 295.940674,1335.062256 286.169281,1337.455811 
	C283.346527,1337.475708 280.523743,1337.495605 276.583191,1336.574341 
	C265.040741,1333.016235 254.604111,1333.099731 244.157257,1335.494629 
	C241.335602,1335.502441 238.513947,1335.510132 234.576706,1334.565674 
	C223.048096,1331.020874 212.619247,1331.155884 202.178009,1333.432129 
	C199.997467,1333.482056 197.816940,1333.531982 194.732330,1332.666748 
	C193.137497,1329.726562 192.446747,1327.701660 191.755997,1325.676636 
	C191.755997,1325.676636 191.904129,1325.925659 192.417694,1325.886963 
	C193.974167,1324.770508 195.017090,1323.692749 196.060013,1322.614990 
	C196.059998,1322.614990 196.577255,1321.922974 197.666443,1321.877930 
	C199.850342,1320.687378 200.945023,1319.541748 202.039703,1318.396240 
	C202.039703,1318.396240 202.468887,1317.771729 203.538422,1317.785400 
	C205.772995,1316.630615 206.938034,1315.461914 208.103088,1314.293335 
	C208.913467,1313.541504 209.723846,1312.789795 211.714691,1311.968018 
	C213.953522,1310.845947 215.011871,1309.793701 216.070221,1308.741577 
	C216.070236,1308.741577 216.652695,1308.013916 217.753662,1307.938965 
	C219.919724,1306.744995 220.984802,1305.625977 222.049896,1304.506958 
	C222.049911,1304.506958 222.540558,1303.848877 223.613922,1303.838867 
	C225.806458,1302.704346 226.925629,1301.579956 228.044815,1300.455688 
	C228.044830,1300.455688 228.486038,1299.810425 229.557663,1299.806885 
	C231.763657,1298.642334 232.898026,1297.481445 234.032410,1296.320435 
	C234.032394,1296.320435 234.424118,1295.720215 235.489929,1295.760742 
	C238.392639,1294.078125 240.229553,1292.354858 242.066437,1290.631714 
	C242.066437,1290.631714 242.606430,1289.935303 243.689758,1289.894531 
	C245.866608,1288.753906 246.960114,1287.654053 248.053635,1286.554077 
	C248.053635,1286.554077 248.544479,1285.877930 249.619232,1285.854614 
	C251.811859,1284.717407 252.929733,1283.603516 254.047592,1282.489624 
	C254.047577,1282.489624 254.508484,1281.833984 255.595200,1281.832031 
	C258.480133,1280.132812 260.278320,1278.435425 262.076538,1276.738037 
	C262.076508,1276.738037 262.665649,1276.010010 263.756165,1275.946045 
	C265.919281,1274.813721 266.991852,1273.745483 268.064453,1272.677246 
	C268.064453,1272.677246 268.603180,1271.961304 269.693787,1271.906982 
	C271.873108,1270.741211 272.961853,1269.629639 274.050598,1268.518188 
	C274.050598,1268.518188 274.543182,1267.856689 275.623657,1267.840576 
	C277.815491,1266.676025 278.926788,1265.527710 280.038086,1264.379272 
	C280.038086,1264.379272 280.430908,1263.756348 281.494659,1263.781250 
	C284.398834,1262.129150 286.239258,1260.452148 288.079712,1258.775146 
	C288.079712,1258.775146 288.660126,1258.029175 289.756622,1257.953857 
	C291.922180,1256.794800 292.991241,1255.711182 294.060303,1254.627563 
	C294.060303,1254.627563 294.598297,1253.932251 295.685883,1253.890503 
	C297.865326,1252.731689 298.957153,1251.614502 300.048981,1250.497437 
	C300.048981,1250.497437 300.490295,1249.836182 301.564056,1249.821289 
	C303.770020,1248.651489 304.902191,1247.496704 306.034393,1246.341919 
	C306.034424,1246.341919 306.428619,1245.733521 307.491760,1245.769409 
	C310.395020,1244.112305 312.235138,1242.419434 314.075256,1240.726440 
	C314.075226,1240.726440 314.651520,1239.999756 315.830872,1239.931641 
	C320.951111,1238.517090 325.371185,1237.753784 326.047607,1232.435669 
	C326.047607,1232.435669 326.489716,1231.798462 327.614532,1231.803711 
	C333.316711,1229.768799 338.412140,1228.373413 340.073669,1222.703613 
	C340.073669,1222.703613 340.623444,1221.981445 341.713379,1221.920532 
	C343.886993,1220.759277 344.970642,1219.659058 346.054321,1218.558716 
	C346.054321,1218.558716 346.563354,1217.886719 347.646362,1217.858643 
	C349.833160,1216.690186 350.937012,1215.549805 352.040833,1214.409546 
	C352.040833,1214.409546 352.472656,1213.779785 353.544067,1213.789551 
	C355.777771,1212.629883 356.940125,1211.460571 358.102478,1210.291260 
	C358.904633,1209.539185 359.706757,1208.786987 361.692322,1207.960205 
	C363.938599,1206.814819 365.001465,1205.744141 366.064331,1204.673340 
	C366.064331,1204.673340 366.619019,1203.964355 367.713623,1203.909424 
	C369.888000,1202.730347 370.967773,1201.606445 372.047607,1200.482544 
	C372.047607,1200.482544 372.520630,1199.830811 373.589630,1199.826172 
	C375.787201,1198.698120 376.915741,1197.574463 378.044312,1196.450928 
	C378.044312,1196.450928 378.488861,1195.807739 379.617188,1195.807129 
	C385.313629,1193.717529 390.504547,1192.394775 392.064270,1186.605103 
	C392.064270,1186.605103 392.585602,1185.914551 393.664368,1185.881592 
	C395.846497,1184.749634 396.949921,1183.650391 398.053345,1182.551270 
	C398.053375,1182.551270 398.552887,1181.880249 399.816223,1181.828613 
	C407.979645,1180.748169 414.879730,1179.719482 421.779816,1178.690918 
	C423.333099,1178.628052 424.886414,1178.565186 427.488800,1179.441650 
	C438.948822,1182.998047 449.377014,1182.839722 459.818298,1180.575562 
	C462.647003,1180.527222 465.475677,1180.478760 469.412720,1181.385498 
	C480.939148,1185.021240 491.376251,1184.848633 501.827484,1182.548950 
	C503.370636,1182.473145 504.913818,1182.397339 507.475159,1183.281616 
	C520.895569,1187.320679 533.337708,1186.723511 545.795898,1184.646362 
	C547.982971,1184.589722 550.170044,1184.533203 553.444763,1185.424805 
	C564.935486,1189.105347 575.362854,1188.753052 585.804321,1186.619873 
	C587.991211,1186.553345 590.178162,1186.486816 593.445435,1187.385376 
	C606.253967,1191.124023 618.011230,1190.760132 629.784485,1188.678833 
	C631.335388,1188.628174 632.886292,1188.577515 635.488159,1189.454102 
	C647.184143,1190.776367 657.829041,1191.171143 668.473999,1191.565918 
	C668.473999,1191.565918 668.566895,1191.710938 668.209106,1192.189453 
	C667.214111,1194.264404 666.576965,1195.860840 665.939758,1197.457275 
	C665.939758,1197.457275 665.459106,1198.130127 664.380798,1198.152954 
	C662.188416,1199.317139 661.074341,1200.458496 659.960205,1201.599854 
	C659.960205,1201.599854 659.530640,1202.226929 658.457397,1202.203613 
	C655.563538,1203.870728 653.742981,1205.560913 651.922485,1207.251099 
	C651.922424,1207.251099 651.348877,1207.985596 650.255859,1208.056885 
	C648.088806,1209.214111 647.014832,1210.300293 645.940857,1211.386475 
	C645.940857,1211.386475 645.425537,1212.081543 644.342834,1212.120239 
	C642.157410,1213.274536 641.054688,1214.390259 639.951965,1215.505981 
	C639.951965,1215.505981 639.466736,1216.160156 638.388794,1216.168945 
	C636.194641,1217.326660 635.078491,1218.475464 633.962280,1219.624390 
	C633.962341,1219.624390 633.567871,1220.247314 632.499023,1220.220215 
	C629.595825,1221.895996 627.761536,1223.598755 625.927246,1225.301514 
z"/>
<path fill="#8A04FB" opacity="1.000000" stroke="none" 
	d="
M627.515503,1348.784912 
	C629.432983,1356.310059 626.175415,1360.974976 621.551147,1365.352661 
	C602.703918,1383.194824 580.802185,1396.511719 557.512451,1407.392944 
	C501.211334,1433.697510 442.186890,1450.290039 380.053864,1455.003296 
	C359.717102,1456.546021 339.476105,1455.710205 319.388031,1451.788940 
	C312.142151,1450.374512 307.304535,1447.030884 305.621490,1439.401001 
	C299.527527,1411.773926 293.220978,1384.193604 287.032654,1356.587280 
	C286.901428,1356.001953 287.228577,1355.313843 287.599854,1353.216675 
	C290.705780,1353.160400 294.141357,1352.909180 297.558441,1353.064697 
	C346.780853,1355.307007 396.006775,1357.487915 445.215485,1360.003784 
	C453.292633,1360.416748 459.867950,1358.561890 466.570251,1353.874512 
	C507.767456,1325.062378 549.232300,1296.632935 590.627319,1268.104126 
	C592.506104,1266.809082 594.570190,1265.783203 597.785583,1263.911621 
	C608.290039,1292.160400 617.485779,1320.192505 627.515503,1348.784912 
z"/>
<path fill="#8004E9" opacity="1.000000" stroke="none" 
	d="
M615.873657,1228.048584 
	C618.242493,1227.386108 620.611389,1226.723755 623.729736,1226.136963 
	C622.121338,1229.395142 620.747986,1232.206665 624.898438,1235.437500 
	C639.200867,1246.571411 650.746704,1260.359009 661.893494,1274.522461 
	C663.233032,1276.224731 665.324646,1277.867920 667.362305,1278.390991 
	C674.330750,1280.180176 678.348755,1285.140991 682.763916,1290.326050 
	C694.196777,1303.752319 706.235168,1316.663452 718.051514,1329.762451 
	C721.398010,1333.472290 724.992065,1336.973999 728.150269,1340.834839 
	C732.075745,1345.633545 732.159058,1349.036133 727.860535,1353.150391 
	C719.835632,1360.831055 710.520813,1366.684570 699.909790,1370.134277 
	C693.898865,1372.088623 691.169983,1370.773926 687.924133,1364.509644 
	C681.795776,1352.682129 675.956909,1340.705078 669.934998,1328.822021 
	C665.871643,1320.803711 661.622925,1312.878784 657.618896,1304.831543 
	C656.146301,1301.872192 654.109497,1298.677124 654.122986,1295.597412 
	C654.155334,1288.195435 650.346924,1282.837036 645.813721,1278.034424 
	C633.503174,1264.991821 620.826233,1252.295166 608.735474,1238.470947 
	C611.796021,1234.611450 618.085205,1234.348022 615.873657,1228.048584 
z"/>
<path fill="#0A050F" opacity="1.000000" stroke="none" 
	d="
M615.208862,1227.853516 
	C618.085205,1234.348022 611.796021,1234.611450 608.375305,1237.790405 
	C606.991333,1238.132324 606.407776,1238.159424 605.625793,1238.134277 
	C600.744019,1235.641235 596.141235,1233.022461 591.360962,1230.782593 
	C576.213989,1223.685181 560.305603,1221.898071 542.422974,1224.487915 
	C539.981262,1225.016602 538.960938,1225.415527 537.940552,1225.814331 
	C527.621094,1228.245117 516.918640,1229.647217 507.060364,1233.316895 
	C485.285065,1241.422363 463.939880,1250.682251 442.404541,1259.434937 
	C439.661407,1260.549927 436.870056,1262.048706 434.026337,1262.235962 
	C432.144836,1262.359985 428.954041,1260.851685 428.459106,1259.369751 
	C427.770691,1257.308105 428.669891,1254.415039 429.646942,1252.214233 
	C430.210785,1250.944214 432.189514,1250.183472 433.660065,1249.452393 
	C467.712585,1232.521973 502.652161,1218.213989 540.429260,1211.661865 
	C567.438049,1206.977539 591.887207,1212.839355 615.208862,1227.853516 
z"/>
<path fill="#8004E9" opacity="1.000000" stroke="none" 
	d="
M545.103394,1184.260010 
	C533.337708,1186.723511 520.895569,1187.320679 508.214905,1183.525879 
	C520.094604,1183.164551 532.252686,1183.519165 545.103394,1184.260010 
z"/>
<path fill="#8004E9" opacity="1.000000" stroke="none" 
	d="
M629.099915,1188.281250 
	C618.011230,1190.760132 606.253967,1191.124023 594.227417,1187.650879 
	C605.424377,1187.262085 616.919861,1187.572876 629.099915,1188.281250 
z"/>
<path fill="#8004E9" opacity="1.000000" stroke="none" 
	d="
M368.874084,1341.830688 
	C379.959045,1339.119141 391.739716,1338.897705 403.781799,1342.442139 
	C392.571869,1342.830688 381.078552,1342.507935 368.874084,1341.830688 
z"/>
<path fill="#8004E9" opacity="1.000000" stroke="none" 
	d="
M501.124084,1182.180786 
	C491.376251,1184.848633 480.939148,1185.021240 470.225098,1181.640503 
	C480.093048,1181.231079 490.256866,1181.521851 501.124084,1182.180786 
z"/>
<path fill="#8004E9" opacity="1.000000" stroke="none" 
	d="
M328.866943,1339.835938 
	C338.599091,1337.108765 349.019135,1337.095093 359.753174,1340.221558 
	C349.903687,1340.673584 339.732758,1340.447632 328.866943,1339.835938 
z"/>
<path fill="#8004E9" opacity="1.000000" stroke="none" 
	d="
M585.106873,1186.244385 
	C575.362854,1188.753052 564.935486,1189.105347 554.229736,1185.677979 
	C564.087830,1185.278320 574.248657,1185.573608 585.106873,1186.244385 
z"/>
<path fill="#8004E9" opacity="1.000000" stroke="none" 
	d="
M244.859436,1335.868164 
	C254.604111,1333.099731 265.040741,1333.016235 275.768829,1336.327881 
	C265.902039,1336.762207 255.731827,1336.501831 244.859436,1335.868164 
z"/>
<path fill="#8004E9" opacity="1.000000" stroke="none" 
	d="
M202.882324,1333.797363 
	C212.619247,1331.155884 223.048096,1331.020874 233.767517,1334.305786 
	C223.911469,1334.719604 213.749054,1334.441040 202.882324,1333.797363 
z"/>
<path fill="#8004E9" opacity="1.000000" stroke="none" 
	d="
M459.126160,1180.185669 
	C449.377014,1182.839722 438.948822,1182.998047 428.232422,1179.688232 
	C438.095978,1179.262207 448.264984,1179.529053 459.126160,1180.185669 
z"/>
<path fill="#8004E9" opacity="1.000000" stroke="none" 
	d="
M668.048462,1190.949829 
	C657.829041,1191.171143 647.184143,1190.776367 636.233215,1189.688232 
	C646.492493,1189.441162 657.057739,1189.887451 668.048462,1190.949829 
z"/>
<path fill="#8004E9" opacity="1.000000" stroke="none" 
	d="
M412.866699,1343.846436 
	C421.948151,1341.067383 431.720917,1340.916748 441.774048,1344.354004 
	C432.571716,1344.772339 423.071655,1344.492676 412.866699,1343.846436 
z"/>
<path fill="#8004E9" opacity="1.000000" stroke="none" 
	d="
M286.874786,1337.819580 
	C295.940674,1335.062256 305.701721,1334.981079 315.762817,1338.271729 
	C306.576691,1338.698975 297.078491,1338.441162 286.874786,1337.819580 
z"/>
<path fill="#8004E9" opacity="1.000000" stroke="none" 
	d="
M421.136169,1178.307373 
	C414.879730,1179.719482 407.979645,1180.748169 400.227905,1181.754395 
	C402.474731,1180.272827 405.452576,1178.081421 408.703278,1177.545898 
	C412.508942,1176.918823 416.552277,1177.734131 421.136169,1178.307373 
z"/>
<path fill="#8004E9" opacity="1.000000" stroke="none" 
	d="
M574.582397,1261.244141 
	C575.580017,1255.620483 580.684570,1254.222900 586.027588,1252.262329 
	C582.926392,1255.276123 579.081482,1258.223755 574.582397,1261.244141 
z"/>
<path fill="#8004E9" opacity="1.000000" stroke="none" 
	d="
M391.407104,1186.677124 
	C390.504547,1192.394775 385.313629,1193.717529 380.003143,1195.744873 
	C383.090515,1192.705200 386.920197,1189.727173 391.407104,1186.677124 
z"/>
<path fill="#8004E9" opacity="1.000000" stroke="none" 
	d="
M522.597290,1297.349365 
	C523.498413,1291.618896 528.679016,1290.266602 534.021423,1288.262329 
	C530.929260,1291.309937 527.092651,1294.293335 522.597290,1297.349365 
z"/>
<path fill="#8004E9" opacity="1.000000" stroke="none" 
	d="
M339.419830,1222.774292 
	C338.412140,1228.373413 333.316711,1229.768799 327.997864,1231.745117 
	C331.092896,1228.735840 334.929443,1225.790405 339.419830,1222.774292 
z"/>
<path fill="#8004E9" opacity="1.000000" stroke="none" 
	d="
M191.095581,1325.777222 
	C192.446747,1327.701660 193.137497,1329.726562 193.959564,1332.378906 
	C191.769196,1332.433105 189.447525,1331.859985 187.125854,1331.286865 
	C188.228973,1329.483887 189.332062,1327.680786 191.095581,1325.777222 
z"/>
<path fill="#8004E9" opacity="1.000000" stroke="none" 
	d="
M325.391602,1232.497070 
	C325.371185,1237.753784 320.951111,1238.517090 316.284515,1239.835083 
	C318.617706,1237.390747 321.676666,1234.974731 325.391602,1232.497070 
z"/>
<path fill="#8004E9" opacity="1.000000" stroke="none" 
	d="
M313.451782,1240.767944 
	C312.235138,1242.419434 310.395020,1244.112305 307.851257,1245.723022 
	C309.041168,1244.030273 310.934753,1242.419800 313.451782,1240.767944 
z"/>
<path fill="#8004E9" opacity="1.000000" stroke="none" 
	d="
M626.549927,1225.252686 
	C627.761536,1223.598755 629.595825,1221.895996 632.134155,1220.273682 
	C630.949707,1221.970703 629.061157,1223.587280 626.549927,1225.252686 
z"/>
<path fill="#8004E9" opacity="1.000000" stroke="none" 
	d="
M241.440887,1290.681396 
	C240.229553,1292.354858 238.392639,1294.078125 235.845840,1295.718994 
	C237.029068,1294.001343 238.922195,1292.366211 241.440887,1290.681396 
z"/>
<path fill="#8004E9" opacity="1.000000" stroke="none" 
	d="
M502.549500,1311.286865 
	C503.747131,1309.622192 505.563263,1307.898682 508.083588,1306.255493 
	C506.914520,1307.966675 505.041260,1309.597290 502.549500,1311.286865 
z"/>
<path fill="#8004E9" opacity="1.000000" stroke="none" 
	d="
M261.459686,1276.786377 
	C260.278320,1278.435425 258.480133,1280.132812 255.990051,1281.763672 
	C257.146423,1280.076416 258.994629,1278.455688 261.459686,1276.786377 
z"/>
<path fill="#8004E9" opacity="1.000000" stroke="none" 
	d="
M548.547974,1279.224854 
	C549.785400,1277.595337 551.644836,1275.901367 554.214478,1274.296631 
	C553.006470,1275.977295 551.088196,1277.568970 548.547974,1279.224854 
z"/>
<path fill="#8004E9" opacity="1.000000" stroke="none" 
	d="
M652.541016,1207.202881 
	C653.742981,1205.560913 655.563538,1203.870728 658.080933,1202.256226 
	C656.905090,1203.939453 655.032349,1205.546997 652.541016,1207.202881 
z"/>
<path fill="#8004E9" opacity="1.000000" stroke="none" 
	d="
M666.485168,1197.447388 
	C666.576965,1195.860840 667.214111,1194.264404 668.201660,1192.103516 
	C671.080566,1194.228271 670.985474,1194.596924 666.485168,1197.447388 
z"/>
<path fill="#8004E9" opacity="1.000000" stroke="none" 
	d="
M287.459473,1258.818115 
	C286.239258,1260.452148 284.398834,1262.129150 281.858612,1263.725098 
	C283.052277,1262.049805 284.945770,1260.455322 287.459473,1258.818115 
z"/>
<path fill="#8004E9" opacity="1.000000" stroke="none" 
	d="
M351.434998,1214.447144 
	C350.937012,1215.549805 349.833160,1216.690186 348.061096,1217.782959 
	C348.538300,1216.651978 349.683716,1215.568359 351.434998,1214.447144 
z"/>
<path fill="#8004E9" opacity="1.000000" stroke="none" 
	d="
M470.538818,1333.419189 
	C471.025970,1332.347656 472.105377,1331.243774 473.831177,1330.174805 
	C473.362061,1331.268799 472.246582,1332.327759 470.538818,1333.419189 
z"/>
<path fill="#8004E9" opacity="1.000000" stroke="none" 
	d="
M464.557068,1337.513428 
	C465.062744,1336.429688 466.169159,1335.298584 467.941345,1334.216064 
	C467.457367,1335.331787 466.307587,1336.399048 464.557068,1337.513428 
z"/>
<path fill="#8004E9" opacity="1.000000" stroke="none" 
	d="
M476.510132,1329.260010 
	C476.994659,1328.228638 478.056885,1327.168945 479.744446,1326.135498 
	C479.275787,1327.185059 478.181824,1328.208252 476.510132,1329.260010 
z"/>
<path fill="#8004E9" opacity="1.000000" stroke="none" 
	d="
M195.483612,1322.645020 
	C195.017090,1323.692749 193.974167,1324.770508 192.303192,1325.798096 
	C192.752502,1324.723755 193.829849,1323.699341 195.483612,1322.645020 
z"/>
<path fill="#8004E9" opacity="1.000000" stroke="none" 
	d="
M345.460876,1218.584473 
	C344.970642,1219.659058 343.886993,1220.759277 342.156433,1221.822266 
	C342.628876,1220.726685 343.748169,1219.668457 345.460876,1218.584473 
z"/>
<path fill="#8004E9" opacity="1.000000" stroke="none" 
	d="
M452.500458,1344.972412 
	C453.142151,1343.944824 454.370514,1343.061646 456.228210,1342.271484 
	C455.600708,1343.281982 454.343903,1344.199341 452.500458,1344.972412 
z"/>
<path fill="#8004E9" opacity="1.000000" stroke="none" 
	d="
M634.571167,1219.581299 
	C635.078491,1218.475464 636.194641,1217.326660 637.986450,1216.231934 
	C637.501404,1217.370117 636.340698,1218.454224 634.571167,1219.581299 
z"/>
<path fill="#8004E9" opacity="1.000000" stroke="none" 
	d="
M207.480408,1314.346802 
	C206.938034,1315.461914 205.772995,1316.630615 203.913712,1317.734009 
	C204.432220,1316.579224 205.644989,1315.489746 207.480408,1314.346802 
z"/>
<path fill="#8004E9" opacity="1.000000" stroke="none" 
	d="
M640.554016,1215.479004 
	C641.054688,1214.390259 642.157410,1213.274536 643.918701,1212.205566 
	C643.436890,1213.318726 642.296448,1214.385376 640.554016,1215.479004 
z"/>
<path fill="#8004E9" opacity="1.000000" stroke="none" 
	d="
M357.479248,1210.343872 
	C356.940125,1211.460571 355.777771,1212.629883 353.922058,1213.735840 
	C354.437805,1212.580444 355.646912,1211.488525 357.479248,1210.343872 
z"/>
<path fill="#8004E9" opacity="1.000000" stroke="none" 
	d="
M646.527344,1211.353760 
	C647.014832,1210.300293 648.088806,1209.214111 649.801636,1208.160522 
	C649.331543,1209.235596 648.222656,1210.278320 646.527344,1211.353760 
z"/>
<path fill="#8004E9" opacity="1.000000" stroke="none" 
	d="
M365.481323,1204.694824 
	C365.001465,1205.744141 363.938599,1206.814819 362.246307,1207.859131 
	C362.710724,1206.793945 363.804535,1205.755127 365.481323,1204.694824 
z"/>
<path fill="#8004E9" opacity="1.000000" stroke="none" 
	d="
M371.450928,1200.517090 
	C370.967773,1201.606445 369.888000,1202.730347 368.154297,1203.817871 
	C368.618347,1202.704834 369.736328,1201.628296 371.450928,1200.517090 
z"/>
<path fill="#8004E9" opacity="1.000000" stroke="none" 
	d="
M660.569824,1201.567139 
	C661.074341,1200.458496 662.188416,1199.317139 663.974243,1198.228027 
	C663.490417,1199.364868 662.334900,1200.449585 660.569824,1201.567139 
z"/>
<path fill="#8004E9" opacity="1.000000" stroke="none" 
	d="
M377.437866,1196.486572 
	C376.915741,1197.574463 375.787201,1198.698120 373.987274,1199.763184 
	C374.487732,1198.643921 375.659546,1197.583130 377.437866,1196.486572 
z"/>
<path fill="#8004E9" opacity="1.000000" stroke="none" 
	d="
M397.457123,1182.578613 
	C396.949921,1183.650391 395.846497,1184.749634 394.089355,1185.801025 
	C394.577393,1184.704224 395.719177,1183.655151 397.457123,1182.578613 
z"/>
<path fill="#8004E9" opacity="1.000000" stroke="none" 
	d="
M247.458588,1286.580566 
	C246.960114,1287.654053 245.866608,1288.753906 244.122437,1289.811279 
	C244.602386,1288.714722 245.732971,1287.660889 247.458588,1286.580566 
z"/>
<path fill="#8004E9" opacity="1.000000" stroke="none" 
	d="
M299.452026,1250.535156 
	C298.957153,1251.614502 297.865326,1252.731689 296.117432,1253.806641 
	C296.592621,1252.700562 297.723846,1251.636719 299.452026,1250.535156 
z"/>
<path fill="#8004E9" opacity="1.000000" stroke="none" 
	d="
M293.472229,1254.648926 
	C292.991241,1255.711182 291.922180,1256.794800 290.217163,1257.847656 
	C290.682251,1256.768066 291.783234,1255.719116 293.472229,1254.648926 
z"/>
<path fill="#8004E9" opacity="1.000000" stroke="none" 
	d="
M568.537048,1265.402100 
	C569.033691,1264.339844 570.121887,1263.240845 571.858032,1262.181641 
	C571.380249,1263.269409 570.254456,1264.317383 568.537048,1265.402100 
z"/>
<path fill="#8004E9" opacity="1.000000" stroke="none" 
	d="
M279.431519,1264.426270 
	C278.926788,1265.527710 277.815491,1266.676025 276.030457,1267.772705 
	C276.512787,1266.638428 277.668884,1265.555908 279.431519,1264.426270 
z"/>
<path fill="#8004E9" opacity="1.000000" stroke="none" 
	d="
M305.418579,1246.381104 
	C304.902191,1247.496704 303.770020,1248.651489 301.954651,1249.747314 
	C302.448578,1248.598999 303.625702,1247.509644 305.418579,1246.381104 
z"/>
<path fill="#8004E9" opacity="1.000000" stroke="none" 
	d="
M562.572266,1269.596436 
	C563.070496,1268.486694 564.177185,1267.331909 565.957947,1266.225586 
	C565.481567,1267.366577 564.331116,1268.458862 562.572266,1269.596436 
z"/>
<path fill="#8004E9" opacity="1.000000" stroke="none" 
	d="
M273.452576,1268.544922 
	C272.961853,1269.629639 271.873108,1270.741211 270.131653,1271.812500 
	C270.604126,1270.705322 271.729340,1269.638428 273.452576,1268.544922 
z"/>
<path fill="#8004E9" opacity="1.000000" stroke="none" 
	d="
M556.590393,1273.653931 
	C557.128906,1272.539429 558.288147,1271.376099 560.143921,1270.282715 
	C559.630676,1271.436890 558.420898,1272.520996 556.590393,1273.653931 
z"/>
<path fill="#8004E9" opacity="1.000000" stroke="none" 
	d="
M267.481201,1272.700195 
	C266.991852,1273.745483 265.919281,1274.813721 264.214386,1275.849365 
	C264.687378,1274.785645 265.792694,1273.754517 267.481201,1272.700195 
z"/>
<path fill="#8004E9" opacity="1.000000" stroke="none" 
	d="
M542.552673,1283.507324 
	C543.032471,1282.413696 544.110107,1281.281616 545.843262,1280.184082 
	C545.382690,1281.301880 544.266602,1282.385254 542.552673,1283.507324 
z"/>
<path fill="#8004E9" opacity="1.000000" stroke="none" 
	d="
M253.441559,1282.511475 
	C252.929733,1283.603516 251.811859,1284.717407 250.029938,1285.777954 
	C250.522415,1284.660767 251.678955,1283.597046 253.441559,1282.511475 
z"/>
<path fill="#8004E9" opacity="1.000000" stroke="none" 
	d="
M536.566650,1287.539062 
	C537.092346,1286.444580 538.226685,1285.314331 540.036621,1284.245117 
	C539.533264,1285.371826 538.354309,1286.437500 536.566650,1287.539062 
z"/>
<path fill="#8004E9" opacity="1.000000" stroke="none" 
	d="
M484.514496,1323.644165 
	C485.044312,1322.535522 486.191711,1321.364868 488.026947,1320.250732 
	C487.520569,1321.398926 486.326294,1322.490601 484.514496,1323.644165 
z"/>
<path fill="#8004E9" opacity="1.000000" stroke="none" 
	d="
M233.415131,1296.360107 
	C232.898026,1297.481445 231.763657,1298.642334 229.943298,1299.743164 
	C230.437485,1298.588501 231.617661,1297.494263 233.415131,1296.360107 
z"/>
<path fill="#8004E9" opacity="1.000000" stroke="none" 
	d="
M516.549927,1301.460205 
	C517.057495,1300.380859 518.164490,1299.270386 519.930176,1298.208496 
	C519.442383,1299.314331 518.295837,1300.371582 516.549927,1301.460205 
z"/>
<path fill="#8004E9" opacity="1.000000" stroke="none" 
	d="
M227.440582,1300.490723 
	C226.925629,1301.579956 225.806458,1302.704346 224.019135,1303.773560 
	C224.512787,1302.654053 225.674576,1301.589844 227.440582,1300.490723 
z"/>
<path fill="#8004E9" opacity="1.000000" stroke="none" 
	d="
M594.530396,1247.378906 
	C595.014038,1246.316895 596.085022,1245.221069 597.797058,1244.158447 
	C597.331299,1245.242798 596.224487,1246.293945 594.530396,1247.378906 
z"/>
<path fill="#8004E9" opacity="1.000000" stroke="none" 
	d="
M510.574524,1305.616211 
	C511.073395,1304.496460 512.181519,1303.334473 513.966187,1302.225342 
	C513.489807,1303.376831 512.336731,1304.475464 510.574524,1305.616211 
z"/>
<path fill="#8004E9" opacity="1.000000" stroke="none" 
	d="
M221.455841,1304.539673 
	C220.984802,1305.625977 219.919724,1306.744995 218.208267,1307.836182 
	C218.661865,1306.729858 219.761841,1305.651123 221.455841,1304.539673 
z"/>
<path fill="#8004E9" opacity="1.000000" stroke="none" 
	d="
M215.494659,1308.768799 
	C215.011871,1309.793701 213.953522,1310.845947 212.273666,1311.873291 
	C212.741135,1310.830933 213.830109,1309.813477 215.494659,1308.768799 
z"/>
<path fill="#8004E9" opacity="1.000000" stroke="none" 
	d="
M496.531250,1315.363403 
	C497.033966,1314.307495 498.126312,1313.223022 499.863098,1312.180542 
	C499.378662,1313.259888 498.249756,1314.297363 496.531250,1315.363403 
z"/>
<path fill="#8004E9" opacity="1.000000" stroke="none" 
	d="
M588.558472,1251.515625 
	C589.062317,1250.427734 590.168213,1249.296875 591.939453,1248.214600 
	C591.456665,1249.333008 590.308655,1250.402832 588.558472,1251.515625 
z"/>
<path fill="#8004E9" opacity="1.000000" stroke="none" 
	d="
M490.558350,1319.524170 
	C491.050476,1318.427612 492.144623,1317.294556 493.900360,1316.203491 
	C493.428101,1317.326172 492.294250,1318.406860 490.558350,1319.524170 
z"/>
<path fill="#8004E9" opacity="1.000000" stroke="none" 
	d="
M201.435089,1318.437500 
	C200.945023,1319.541748 199.850342,1320.687378 198.089539,1321.790527 
	C198.559097,1320.658447 199.694794,1319.568726 201.435089,1318.437500 
z"/>
<path fill="#0C0810" opacity="1.000000" stroke="none" 
	d="
M2336.000000,1899.882324 
	C2291.340332,1899.882202 2247.680664,1899.883789 2204.020996,1899.878540 
	C2201.021973,1899.878174 2198.004150,1900.030884 2195.027588,1899.758789 
	C2186.935791,1899.019165 2181.438721,1893.883667 2180.333252,1885.918091 
	C2179.923828,1882.969116 2180.102783,1879.931152 2180.102783,1876.933716 
	C2180.094482,1721.625122 2180.094971,1566.316650 2180.099365,1411.008057 
	C2180.099365,1408.342407 2179.961182,1405.657837 2180.218262,1403.014404 
	C2181.105713,1393.893555 2186.586670,1388.647095 2195.853760,1387.968750 
	C2198.175293,1387.798950 2200.517822,1387.909790 2202.850830,1387.909668 
	C2302.501465,1387.907837 2402.152344,1387.907959 2501.802979,1387.910156 
	C2504.135742,1387.910156 2506.477783,1387.811890 2508.800049,1387.976196 
	C2518.109131,1388.634766 2523.499268,1393.878296 2524.312500,1403.019409 
	C2524.459717,1404.674683 2524.413574,1406.349365 2524.413818,1408.015137 
	C2524.419678,1438.676880 2524.474609,1469.338867 2524.395264,1500.000366 
	C2524.357178,1514.746094 2519.252197,1519.861938 2504.543457,1519.876099 
	C2447.885742,1519.930908 2391.228271,1519.901001 2334.570557,1519.902832 
	C2330.948730,1519.902954 2327.326904,1519.902954 2322.954590,1519.902954 
	C2322.954590,1540.102661 2322.954590,1559.562378 2322.954590,1580.159668 
	C2326.361572,1580.346680 2329.866211,1580.703003 2333.371094,1580.706299 
	C2375.031006,1580.745361 2416.691162,1580.730225 2458.351074,1580.735474 
	C2461.016602,1580.735840 2463.700928,1580.594849 2466.344482,1580.849609 
	C2475.946045,1581.774780 2481.449463,1587.369873 2481.843506,1597.139771 
	C2482.178955,1605.458618 2481.951172,1613.800781 2481.952393,1622.132568 
	C2481.956055,1645.462158 2482.026367,1668.792236 2481.918457,1692.121338 
	C2481.853760,1706.123779 2476.610840,1711.385986 2462.419922,1711.420654 
	C2419.760254,1711.524902 2377.100342,1711.460815 2334.440430,1711.462402 
	C2330.826660,1711.462524 2327.213135,1711.462402 2322.902100,1711.462402 
	C2322.902100,1730.427490 2322.902100,1748.538818 2322.902100,1767.885864 
	C2326.770508,1767.885864 2330.330322,1767.885864 2333.889893,1767.885864 
	C2394.213623,1767.885986 2454.537354,1767.885132 2514.861084,1767.889160 
	C2517.860352,1767.889282 2520.878418,1767.723511 2523.854980,1767.995605 
	C2532.044922,1768.744019 2537.226807,1773.654663 2538.480469,1781.858521 
	C2538.880615,1784.476074 2538.876709,1787.171509 2538.878906,1789.831421 
	C2538.903809,1819.160034 2538.908203,1848.488770 2538.870850,1877.817383 
	C2538.867188,1880.806396 2538.865723,1883.852783 2538.324707,1886.772827 
	C2536.916504,1894.372437 2531.677002,1899.056641 2523.965576,1899.757568 
	C2520.988525,1900.028076 2517.970947,1899.877930 2514.971924,1899.878174 
	C2455.647949,1899.883301 2396.323975,1899.882324 2336.000000,1899.882324 
M2393.000000,1503.878906 
	C2431.225586,1503.878906 2469.451172,1503.878906 2508.070068,1503.878906 
	C2508.070068,1469.979492 2508.070068,1437.173950 2508.070068,1404.175659 
	C2403.821777,1404.175659 2300.101562,1404.175659 2196.284180,1404.175659 
	C2196.284180,1564.079834 2196.284180,1723.242310 2196.284180,1882.845459 
	C2305.213135,1882.845459 2413.629395,1882.845459 2522.169922,1882.845459 
	C2522.169922,1849.341187 2522.169922,1816.518677 2522.169922,1782.619385 
	C2450.040771,1782.619385 2378.563232,1782.619385 2307.192139,1782.619385 
	C2307.192139,1753.054688 2307.192139,1724.579712 2307.192139,1695.113403 
	C2360.416260,1695.113403 2412.920166,1695.113403 2465.395996,1695.113403 
	C2465.395996,1661.620117 2465.395996,1629.136353 2465.395996,1595.643921 
	C2412.287354,1595.643921 2359.820068,1595.643921 2307.512695,1595.643921 
	C2305.533203,1581.592651 2306.085938,1511.197754 2308.230469,1503.878906 
	C2335.716309,1503.878906 2363.358154,1503.878906 2393.000000,1503.878906 
z"/>
<path fill="#0C0810" opacity="1.000000" stroke="none" 
	d="
M2572.284180,1702.000000 
	C2572.284180,1605.043335 2572.282959,1509.086548 2572.287842,1413.129883 
	C2572.288086,1409.798706 2572.115479,1406.446167 2572.421875,1403.140381 
	C2573.269531,1393.989258 2578.748779,1388.712646 2587.940674,1387.970581 
	C2589.596680,1387.836792 2591.270752,1387.912354 2592.936523,1387.912598 
	C2647.911621,1387.920898 2702.886963,1387.884399 2757.862061,1387.958496 
	C2795.518799,1388.009277 2832.440430,1393.195312 2867.268311,1407.875610 
	C2951.437256,1443.354004 3001.050293,1506.731201 3015.480957,1596.795532 
	C3023.230469,1645.160767 3020.638184,1693.352539 3004.082031,1739.830444 
	C2977.173584,1815.369019 2924.695068,1864.595703 2847.951660,1887.739258 
	C2821.325195,1895.769043 2793.913818,1899.534790 2766.144043,1899.683228 
	C2708.171875,1899.993286 2650.197266,1899.877075 2592.223633,1899.859375 
	C2577.695557,1899.854858 2572.332275,1894.505127 2572.315918,1879.920288 
	C2572.249023,1820.946899 2572.285400,1761.973389 2572.284180,1702.000000 
M2587.773438,1779.000000 
	C2587.773438,1813.529907 2587.773438,1848.059814 2587.773438,1883.005127 
	C2590.526367,1883.242065 2592.126465,1883.501343 2593.726807,1883.500122 
	C2651.370117,1883.456909 2709.014404,1883.571655 2766.656250,1883.229126 
	C2787.679932,1883.104248 2808.546631,1880.531372 2829.032471,1875.620850 
	C2903.529785,1857.762939 2956.702148,1814.287842 2985.462158,1742.908203 
	C3004.101318,1696.647827 3006.805908,1648.139282 2999.467529,1599.297485 
	C2988.054443,1523.334473 2948.170654,1466.672852 2880.093018,1430.818115 
	C2844.072266,1411.846924 2804.892822,1404.058716 2764.385986,1403.729370 
	C2707.745605,1403.268921 2651.099365,1403.498535 2594.455811,1403.455933 
	C2592.542725,1403.454468 2590.629395,1403.701416 2587.773438,1403.897217 
	C2587.773438,1528.624756 2587.773438,1652.812378 2587.773438,1779.000000 
z"/>
<path fill="#030303" opacity="1.000000" stroke="none" 
	d="
M1409.912720,1786.389404 
	C1374.662842,1787.410400 1347.828979,1761.932251 1343.880981,1726.228882 
	C1342.479004,1713.551025 1342.733154,1700.950562 1346.252441,1688.600586 
	C1357.202393,1650.175293 1396.675293,1629.610229 1432.623291,1643.918091 
	C1451.353638,1651.373291 1463.570435,1665.544556 1470.119263,1684.342407 
	C1476.671387,1703.149414 1476.659424,1722.305786 1470.401001,1741.210449 
	C1461.435303,1768.293335 1439.396851,1784.813110 1409.912720,1786.389404 
z"/>
<path fill="#8004E9" opacity="1.000000" stroke="none" 
	d="
M538.201538,1226.275146 
	C538.960938,1225.415527 539.981262,1225.016602 541.543213,1224.803711 
	C540.877319,1225.571777 539.669922,1226.153809 538.201538,1226.275146 
z"/>
<path fill="#FDFDFD" opacity="1.000000" stroke="none" 
	d="
M2392.000000,1503.878906 
	C2363.358154,1503.878906 2335.716309,1503.878906 2308.230469,1503.878906 
	C2306.085938,1511.197754 2305.533203,1581.592651 2307.512695,1595.643921 
	C2359.820068,1595.643921 2412.287354,1595.643921 2465.395996,1595.643921 
	C2465.395996,1629.136353 2465.395996,1661.620117 2465.395996,1695.113403 
	C2412.920166,1695.113403 2360.416260,1695.113403 2307.192139,1695.113403 
	C2307.192139,1724.579712 2307.192139,1753.054688 2307.192139,1782.619385 
	C2378.563232,1782.619385 2450.040771,1782.619385 2522.169922,1782.619385 
	C2522.169922,1816.518677 2522.169922,1849.341187 2522.169922,1882.845459 
	C2413.629395,1882.845459 2305.213135,1882.845459 2196.284180,1882.845459 
	C2196.284180,1723.242310 2196.284180,1564.079834 2196.284180,1404.175659 
	C2300.101562,1404.175659 2403.821777,1404.175659 2508.070068,1404.175659 
	C2508.070068,1437.173950 2508.070068,1469.979492 2508.070068,1503.878906 
	C2469.451172,1503.878906 2431.225586,1503.878906 2392.000000,1503.878906 
z"/>
<path fill="#FDFDFD" opacity="1.000000" stroke="none" 
	d="
M2587.773438,1778.000000 
	C2587.773438,1652.812378 2587.773438,1528.624756 2587.773438,1403.897217 
	C2590.629395,1403.701416 2592.542725,1403.454468 2594.455811,1403.455933 
	C2651.099365,1403.498535 2707.745605,1403.268921 2764.385986,1403.729370 
	C2804.892822,1404.058716 2844.072266,1411.846924 2880.093018,1430.818115 
	C2948.170654,1466.672852 2988.054443,1523.334473 2999.467529,1599.297485 
	C3006.805908,1648.139282 3004.101318,1696.647827 2985.462158,1742.908203 
	C2956.702148,1814.287842 2903.529785,1857.762939 2829.032471,1875.620850 
	C2808.546631,1880.531372 2787.679932,1883.104248 2766.656250,1883.229126 
	C2709.014404,1883.571655 2651.370117,1883.456909 2593.726807,1883.500122 
	C2592.126465,1883.501343 2590.526367,1883.242065 2587.773438,1883.005127 
	C2587.773438,1848.059814 2587.773438,1813.529907 2587.773438,1778.000000 
M2845.956055,1541.047119 
	C2828.368896,1522.679565 2807.158936,1510.630737 2782.115234,1506.315186 
	C2755.041992,1501.649902 2727.668701,1504.633301 2699.849121,1503.774048 
	C2699.849121,1596.991211 2699.849121,1689.411865 2699.849121,1781.915161 
	C2701.115479,1782.269897 2702.039062,1782.760620 2702.958252,1782.751709 
	C2723.272217,1782.554565 2743.666016,1783.363647 2763.883545,1781.844360 
	C2808.948730,1778.458252 2842.780029,1756.269043 2866.339355,1717.832397 
	C2893.525391,1673.478027 2895.074463,1591.253906 2845.956055,1541.047119 
z"/>
<path fill="#0A050F" opacity="1.000000" stroke="none" 
	d="
M2846.459473,1541.550049 
	C2895.074463,1591.253906 2893.525391,1673.478027 2866.339355,1717.832397 
	C2842.780029,1756.269043 2808.948730,1778.458252 2763.883545,1781.844360 
	C2743.666016,1783.363647 2723.272217,1782.554565 2702.958252,1782.751709 
	C2702.039062,1782.760620 2701.115479,1782.269897 2699.849121,1781.915161 
	C2699.849121,1689.411865 2699.849121,1596.991211 2699.849121,1503.774048 
	C2727.668701,1504.633301 2755.041992,1501.649902 2782.115234,1506.315186 
	C2807.158936,1510.630737 2828.368896,1522.679565 2846.459473,1541.550049 
M2715.347900,1597.000000 
	C2715.347900,1653.558960 2715.347900,1710.117920 2715.347900,1766.987671 
	C2718.038818,1767.391235 2719.631348,1767.869507 2721.210449,1767.829468 
	C2736.191650,1767.448486 2751.251221,1767.812256 2766.134521,1766.373047 
	C2804.661133,1762.647705 2834.234619,1743.616699 2853.219727,1710.125000 
	C2875.397217,1671.001221 2876.062744,1629.498535 2859.078125,1588.711548 
	C2842.807861,1549.639160 2813.055176,1525.416626 2769.961670,1520.752686 
	C2754.793457,1519.111084 2739.339600,1520.073120 2724.015381,1519.942261 
	C2721.453613,1519.920410 2718.887695,1520.390625 2715.347900,1520.725830 
	C2715.347900,1545.826416 2715.347900,1570.413208 2715.347900,1597.000000 
z"/>
<path fill="#7E03FD" opacity="1.000000" stroke="none" 
	d="
M2715.347900,1596.000000 
	C2715.347900,1570.413208 2715.347900,1545.826416 2715.347900,1520.725830 
	C2718.887695,1520.390625 2721.453613,1519.920410 2724.015381,1519.942261 
	C2739.339600,1520.073120 2754.793457,1519.111084 2769.961670,1520.752686 
	C2813.055176,1525.416626 2842.807861,1549.639160 2859.078125,1588.711548 
	C2876.062744,1629.498535 2875.397217,1671.001221 2853.219727,1710.125000 
	C2834.234619,1743.616699 2804.661133,1762.647705 2766.134521,1766.373047 
	C2751.251221,1767.812256 2736.191650,1767.448486 2721.210449,1767.829468 
	C2719.631348,1767.869507 2718.038818,1767.391235 2715.347900,1766.987671 
	C2715.347900,1710.117920 2715.347900,1653.558960 2715.347900,1596.000000 
z"/>
</svg>